<svg width="18" height="27" viewBox="0 0 18 27" fill="none" xmlns="http://www.w3.org/2000/svg">
<g opacity="0.75">
<path opacity="0.3" fill-rule="evenodd" clip-rule="evenodd" d="M13.6797 2.18945L17.9451 4.73682V19.4485L13.6797 22.252V2.18945Z" fill="#FC9702"/>
</g>
<g opacity="0.48">
<path opacity="0.45" fill-rule="evenodd" clip-rule="evenodd" d="M0 7.37363L4.31807 5.10938V24.2814L0 21.7127V7.37363Z" fill="#FC9702"/>
</g>
<path fill-rule="evenodd" clip-rule="evenodd" d="M8.95406 15.0116L4.50454 17.5135L0 14.9583V5.00386L8.95406 0L13.68 2.57865V7.63583L8.95406 5.00386L4.50454 7.55911V12.5097L8.95406 15.0116Z" fill="url(#paint0_linear_1203_334)"/>
<path fill-rule="evenodd" clip-rule="evenodd" d="M9.04801 11.3954L13.4967 8.75781L18.0003 11.3954V21.7808L9.04801 27.0011L4.32031 24.2842V19.064L9.10301 21.8359L13.4967 19.1432V13.978L9.04801 11.3954Z" fill="url(#paint1_linear_1203_334)"/>
<defs>
<linearGradient id="paint0_linear_1203_334" x1="0" y1="17.5135" x2="13.68" y2="17.5135" gradientUnits="userSpaceOnUse">
<stop stop-color="#FF6B39"/>
<stop offset="0.35" stop-color="#FF8124"/>
<stop offset="0.78" stop-color="#FC9700"/>
<stop offset="1" stop-color="#FFAA00"/>
</linearGradient>
<linearGradient id="paint1_linear_1203_334" x1="4.32031" y1="27.0011" x2="18.0003" y2="27.0011" gradientUnits="userSpaceOnUse">
<stop stop-color="#FF6A37"/>
<stop offset="0.295069" stop-color="#FC7614"/>
<stop offset="0.78" stop-color="#FC9700"/>
<stop offset="1" stop-color="#FFAA00"/>
</linearGradient>
</defs>
</svg>
