<svg width="64" height="64" viewBox="0 0 64 64" fill="none" xmlns="http://www.w3.org/2000/svg">
<g filter="url(#filter0_i_1202_1107)">
<circle cx="32" cy="32" r="32" fill="#FFE501"/>
</g>
<path d="M33.7979 36.7852C33.7979 37.5957 33.6465 38.2939 33.3438 38.8799C33.0508 39.4658 32.6553 39.9639 32.1572 40.374C31.6592 40.7842 31.083 41.1211 30.4287 41.3848C29.7842 41.6387 29.1104 41.8389 28.4072 41.9854C27.7041 42.1318 26.9961 42.2295 26.2832 42.2783C25.5801 42.3271 24.9209 42.3516 24.3057 42.3516C23.7002 42.3516 23.0703 42.3271 22.416 42.2783C21.7715 42.2393 21.127 42.166 20.4824 42.0586C19.8379 41.9512 19.2031 41.8096 18.5781 41.6338C17.9531 41.4482 17.3623 41.2188 16.8057 40.9453L16.7764 22.0781C17.3232 21.8535 17.9043 21.6533 18.5195 21.4775C19.1348 21.292 19.7598 21.1406 20.3945 21.0234C21.0391 20.8965 21.6787 20.8037 22.3135 20.7451C22.9482 20.6768 23.5635 20.6426 24.1592 20.6426C24.8525 20.6426 25.5508 20.6865 26.2539 20.7744C26.9668 20.8623 27.6504 21.0088 28.3047 21.2139C28.959 21.4189 29.5693 21.6875 30.1357 22.0195C30.7021 22.3418 31.1953 22.7422 31.6152 23.2207C32.0449 23.6992 32.377 24.2559 32.6113 24.8906C32.8555 25.5254 32.9775 26.2578 32.9775 27.0879C32.9775 27.6348 32.8994 28.1475 32.7432 28.626C32.5869 29.1045 32.3623 29.5342 32.0693 29.915C31.7764 30.2959 31.4199 30.623 31 30.8965C30.5801 31.1602 30.1064 31.3555 29.5791 31.4824C30.2139 31.6484 30.79 31.8926 31.3076 32.2148C31.835 32.5371 32.2793 32.9277 32.6406 33.3867C33.0117 33.8457 33.2949 34.3633 33.4902 34.9395C33.6953 35.5156 33.7979 36.1309 33.7979 36.7852ZM26.3564 28.4355C26.3564 28.1523 26.2979 27.9131 26.1807 27.7178C26.0635 27.5127 25.917 27.3467 25.7412 27.2197C25.5752 27.0928 25.3896 27 25.1846 26.9414C24.9893 26.8828 24.8135 26.8535 24.6572 26.8535C24.4619 26.8535 24.2715 26.8828 24.0859 26.9414C23.9004 27 23.7197 27.0684 23.5439 27.1465L23.4561 30.3984C23.6807 30.3984 23.959 30.3789 24.291 30.3398C24.623 30.3008 24.9404 30.2178 25.2432 30.0908C25.5557 29.9541 25.8193 29.7588 26.0342 29.5049C26.249 29.2412 26.3564 28.8848 26.3564 28.4355ZM24.2764 33.2109C23.9932 33.2109 23.7197 33.2402 23.4561 33.2988L23.3975 36.6387C23.5439 36.668 23.6855 36.6973 23.8223 36.7266C23.9688 36.7461 24.1104 36.7559 24.2471 36.7559C24.4521 36.7559 24.6768 36.7363 24.9209 36.6973C25.165 36.6484 25.3945 36.5605 25.6094 36.4336C25.8242 36.2969 26 36.1162 26.1367 35.8916C26.2832 35.667 26.3564 35.3691 26.3564 34.998C26.3564 34.627 26.2832 34.3242 26.1367 34.0898C26 33.8555 25.8291 33.6748 25.624 33.5479C25.4189 33.4111 25.1943 33.3232 24.9502 33.2842C24.7061 33.2354 24.4814 33.2109 24.2764 33.2109ZM50.0723 21.0527L49.9258 27.2637L45.5605 27.4395L44.4473 41.3262L38.2656 41.6484L38.2949 27.7617L33.9297 27.9961L34.1055 21.082L50.0723 21.0527Z" fill="#0B1B5E"/>
<defs>
<filter id="filter0_i_1202_1107" x="0" y="0" width="64" height="64" filterUnits="userSpaceOnUse" color-interpolation-filters="sRGB">
<feFlood flood-opacity="0" result="BackgroundImageFix"/>
<feBlend mode="normal" in="SourceGraphic" in2="BackgroundImageFix" result="shape"/>
<feColorMatrix in="SourceAlpha" type="matrix" values="0 0 0 0 0 0 0 0 0 0 0 0 0 0 0 0 0 0 127 0" result="hardAlpha"/>
<feMorphology radius="1" operator="erode" in="SourceAlpha" result="effect1_innerShadow_1202_1107"/>
<feOffset/>
<feGaussianBlur stdDeviation="2"/>
<feComposite in2="hardAlpha" operator="arithmetic" k2="-1" k3="1"/>
<feColorMatrix type="matrix" values="0 0 0 0 0.0431373 0 0 0 0 0.105882 0 0 0 0 0.368627 0 0 0 0.3 0"/>
<feBlend mode="normal" in2="shape" result="effect1_innerShadow_1202_1107"/>
</filter>
</defs>
</svg>
