<svg width="149" height="36" viewBox="0 0 149 36" fill="none" xmlns="http://www.w3.org/2000/svg">
<path d="M8.63086 7.70703C10.6621 7.70703 12.4069 8.44271 13.8652 9.91406C15.3301 11.3854 16.0625 13.179 16.0625 15.2949C16.0625 17.3913 15.3398 19.1654 13.8945 20.6172C12.4557 22.069 10.7077 22.7949 8.65039 22.7949C6.49544 22.7949 4.70508 22.0495 3.2793 20.5586C1.85352 19.0677 1.14062 17.2969 1.14062 15.2461C1.14062 13.8724 1.47266 12.6094 2.13672 11.457C2.80078 10.3047 3.71224 9.39323 4.87109 8.72266C6.03646 8.04557 7.28971 7.70703 8.63086 7.70703ZM8.60156 10.3828C7.27344 10.3828 6.1569 10.8451 5.25195 11.7695C4.34701 12.694 3.89453 13.8691 3.89453 15.2949C3.89453 16.8835 4.46419 18.14 5.60352 19.0645C6.48893 19.7871 7.50456 20.1484 8.65039 20.1484C9.94596 20.1484 11.0495 19.6797 11.9609 18.7422C12.8724 17.8047 13.3281 16.6491 13.3281 15.2754C13.3281 13.9082 12.8691 12.7526 11.9512 11.8086C11.0332 10.8581 9.91667 10.3828 8.60156 10.3828Z" fill="#0B1B5E"/>
<g clip-path="url(#clip0_123_541)">
<path fill-rule="evenodd" clip-rule="evenodd" d="M133.171 16.3291H120.529V10.1296H133.171V16.3291Z" fill="#FEE608"/>
<path fill-rule="evenodd" clip-rule="evenodd" d="M120.529 22.5283H107.887V16.3288H120.529V22.5283Z" fill="#FEE608"/>
<mask id="mask0_123_541" style="mask-type:luminance" maskUnits="userSpaceOnUse" x="8" y="0" width="141" height="36">
<path d="M8.99805 3.8147e-06H148.998V36H8.99805V3.8147e-06Z" fill="white"/>
</mask>
<g mask="url(#mask0_123_541)">
<path d="M29.9184 19.8488C29.7171 20.0368 29.3429 20.1593 28.7867 20.2251C28.5181 20.253 28.1917 20.2717 27.8273 20.2717H27.2324V16.9224H27.7311C28.1246 16.9224 28.4792 16.951 28.7867 17.0166C29.8324 17.2234 30.3501 17.7974 30.3501 18.7197C30.3501 19.1897 30.2064 19.5661 29.9184 19.8488ZM30.3599 15.1631C29.9184 15.0126 29.4005 14.909 28.7867 14.8526C28.4697 14.8243 28.1246 14.8147 27.7504 14.8147H27.2324V12.4345H28.7867V12.4349H31.4249V10.1391H28.7867H24.8242V22.5205H28.3641C28.5083 22.5205 28.6521 22.5205 28.7867 22.5116C29.64 22.4737 30.3119 22.3135 30.8201 22.0411C31.4152 21.7118 31.8753 21.2975 32.2211 20.7802C32.5564 20.2626 32.7293 19.5757 32.7293 18.7197C32.7293 17.8539 32.4988 17.1016 32.0482 16.4613C31.5976 15.8215 31.041 15.3891 30.3599 15.1631Z" fill="#0B1B5E"/>
<path d="M71.4537 16.8078H68.9117C69.1804 16.2402 69.4654 15.8366 69.7759 15.6151C70.2545 15.2608 70.8161 15.0799 71.4537 15.0799H71.496C72.0913 15.0799 72.6281 15.2365 73.0813 15.5573C73.5257 15.8781 73.8276 16.2897 73.987 16.8078H71.4537ZM71.4537 13.1305H71.378C69.9943 13.1305 68.8446 13.5908 67.9222 14.5126C67.0836 15.3601 66.6304 16.4046 66.5547 17.6468V18.3377C66.6304 19.5554 67.0836 20.5758 67.9309 21.3983C68.8367 22.2952 70.0111 22.7481 71.4537 22.7559H71.5126C72.4605 22.7559 73.2657 22.5914 73.9454 22.2622C74.6412 21.9335 75.5893 21.3903 76.3272 19.8354L73.7436 19.8434C73.1229 20.4442 72.3681 20.7487 71.496 20.7487H71.4537C70.7406 20.7402 70.1533 20.5428 69.684 20.1642C69.214 19.7863 68.9204 19.2674 68.8112 18.6177H71.4537H76.3359L76.3441 18.1733C76.3775 16.6599 75.8828 15.4422 74.9604 14.5126C74.0541 13.6073 72.8884 13.147 71.4537 13.1305Z" fill="#0B1B5E"/>
<path d="M86.8837 13.3664H84.0249L80.7921 16.7913V13.3664H78.4512V22.5205H80.7921V19.5759L81.0411 19.2843L83.8236 22.5205H86.9413L82.7206 17.826L86.8837 13.3664Z" fill="#0B1B5E"/>
<path d="M40.8636 19.8958C40.3845 20.394 39.7701 20.6481 39.0411 20.6481H39.0313C38.3123 20.6481 37.7074 20.394 37.2181 19.8862C36.7293 19.3689 36.4893 18.729 36.4893 17.9391C36.4893 17.1576 36.7293 16.5084 37.209 16.01C37.6883 15.5016 38.2927 15.257 39.0218 15.257H39.0411C39.7799 15.257 40.3845 15.5016 40.8636 15.991C41.3529 16.4899 41.5931 17.1295 41.5931 17.9295C41.5931 18.7478 41.3529 19.3968 40.8636 19.8958ZM41.4875 14.3727C41.0653 13.9589 40.6143 13.6481 40.1157 13.4411C39.7799 13.3003 39.4153 13.2064 39.0411 13.1589C38.878 13.1403 38.7053 13.1308 38.542 13.1308C37.3146 13.1308 36.2782 13.5821 35.4243 14.4856C34.5704 15.3891 34.1484 16.5459 34.1484 17.967C34.1484 19.3218 34.5897 20.46 35.4721 21.3821C36.3551 22.295 37.4008 22.7559 38.6093 22.7559C38.7531 22.7559 38.8973 22.7465 39.0411 22.7369C39.4153 22.6994 39.7701 22.6149 40.1061 22.4736C40.5663 22.2856 41.0267 21.9844 41.4875 21.5516V22.5205H43.8186V13.3661H41.4875V14.3727Z" fill="#0B1B5E"/>
<path d="M56.4336 12.397H59.9159V22.5303H62.3526V12.397L65.864 12.378L65.8731 10.1482L56.4336 10.1297V12.397Z" fill="#0B1B5E"/>
<path d="M49.9764 19.1051L47.5488 13.366H45.1504L48.7096 21.8429L46.7818 25.8701H49.2087L55.0895 13.366H52.6528L49.9764 19.1051Z" fill="#0B1B5E"/>
<path d="M92.2653 20.7616C90.8553 20.7616 89.6849 19.7826 89.4254 18.4938C89.3872 18.3337 89.3678 18.1648 89.3678 17.9859V17.9765V17.958C89.3678 16.3961 90.6631 15.135 92.2653 15.135C93.5606 15.135 94.6638 15.9724 95.0277 17.1205H97.1867C96.7834 14.8811 94.7304 13.1686 92.2558 13.1686C89.4927 13.1686 87.248 15.3045 87.248 17.9294C87.248 20.5541 89.4927 22.6904 92.2558 22.6904C94.7118 22.6904 96.7549 20.9967 97.1867 18.7859H95.0277C94.6638 19.9241 93.5606 20.7616 92.2653 20.7616Z" fill="#0B1B5E"/>
</g>
</g>
<defs>
<clipPath id="clip0_123_541">
<rect width="140" height="36" fill="white" transform="translate(9)"/>
</clipPath>
</defs>
</svg>
